<?xml version="1.0" encoding="iso-8859-1"?>
<!-- Generator: Adobe Illustrator 18.0.0, SVG Export Plug-In . SVG Version: 6.00 Build 0)  -->
<!DOCTYPE svg PUBLIC "-//W3C//DTD SVG 1.1//EN" "http://www.w3.org/Graphics/SVG/1.1/DTD/svg11.dtd">
<svg version="1.1" id="Capa_1" xmlns="http://www.w3.org/2000/svg" xmlns:xlink="http://www.w3.org/1999/xlink" x="0px" y="0px"
	 viewBox="0 0 226.932 226.932" style="enable-background:new 0 0 226.932 226.932;" xml:space="preserve">
<g>
	<path d="M120.654,52.179c1.84,0,3.64-0.75,4.95-2.061c1.3-1.3,2.05-3.1,2.05-4.939c0-1.851-0.75-3.65-2.05-4.96
		c-1.311-1.3-3.11-2.04-4.95-2.04s-3.65,0.74-4.95,2.04c-1.31,1.31-2.05,3.109-2.05,4.96c0,1.84,0.74,3.64,2.05,4.939
		C117.004,51.429,118.814,52.179,120.654,52.179z"/>
	<path d="M202.931,30.477c-11.662-21.226-34.009-32.77-58.337-30.097c-11.948,1.307-21.566,7.727-28.807,13.597
		c-1.762,0.276-3.504,0.695-5.211,1.269c-13.392,4.509-21.78,17.177-21.497,30.613l-1.627,35.145
		c-26.326,7.998-48.463,29.516-58.523,57.293c-10.713,29.581-6.362,62.481,11.353,85.862c1.341,1.77,3.418,2.772,5.579,2.772
		c0.524,0,1.054-0.059,1.579-0.181c6.01-1.391,11.831-3.492,17.383-6.205c39.065-4.717,68.968-24.238,84.274-55.081
		c14.594-29.409,15.094-63.252,1.86-92.799l31.178,1.056c0.079,0.003,0.158,0.004,0.237,0.004c1.84,0,3.608-0.725,4.921-2.021
		c1.369-1.354,2.12-3.211,2.077-5.135c-0.176-7.883-3.094-14.551-8.438-19.282c-1.033-0.915-2.14-1.719-3.286-2.46l20.525-4.117
		c2.185-0.438,4.031-1.892,4.971-3.912C204.083,34.778,204.004,32.431,202.931,30.477z M115.043,28.515
		c1.824-0.613,3.712-0.925,5.611-0.925c7.551,0,14.244,4.813,16.656,11.976c3.092,9.186-1.865,19.175-11.051,22.268
		c-1.824,0.614-3.712,0.925-5.611,0.925c-7.551,0-14.244-4.813-16.656-11.976C100.9,41.597,105.857,31.607,115.043,28.515z
		 M144.941,134.035c-14.545-2.921-26.895-13.092-32.372-27.115c-0.018-0.046-0.042-0.089-0.06-0.134
		c-2.607-8.043-6.351-15.638-11.194-22.485l0.634-13.686c5.295,3.895,11.794,6.143,18.7,6.143c3.421,0,6.813-0.558,10.078-1.657
		c1.698-0.572,3.31-1.281,4.839-2.099C145.534,92.001,148.706,113.433,144.941,134.035z M42.093,143.065
		c8.541-23.584,27.146-41.828,49.209-48.602c12.609,19.33,15.217,45.256,6.676,68.84c-8.542,23.585-27.147,41.829-49.209,48.603
		C36.161,192.576,33.552,166.649,42.093,143.065z M92.561,199.318c7.944-8.942,14.339-19.535,18.58-31.247
		c3.812-10.525,5.707-21.47,5.781-32.258c7.054,5.744,15.431,9.833,24.481,11.784c-1.348,3.95-2.958,7.842-4.846,11.646
		C126.049,180.418,109.485,192.51,92.561,199.318z M149.206,58.599c0.869-1.848,1.561-3.779,2.061-5.767
		c9.214-0.232,16.496,1.492,20.385,4.937c0.572,0.506,1.074,1.052,1.51,1.642L149.206,58.599z M150.834,35.929
		c-0.085-0.277-0.163-0.554-0.256-0.83c-2.605-7.737-8.003-13.928-14.835-17.65c3.224-1.583,6.678-2.747,10.374-3.152
		c15.174-1.66,29.338,3.889,38.862,14.782L150.834,35.929z"/>
</g>
<g>
</g>
<g>
</g>
<g>
</g>
<g>
</g>
<g>
</g>
<g>
</g>
<g>
</g>
<g>
</g>
<g>
</g>
<g>
</g>
<g>
</g>
<g>
</g>
<g>
</g>
<g>
</g>
<g>
</g>
</svg>
